<svg xmlns="http://www.w3.org/2000/svg" version="1.1" xmlns:xlink="http://www.w3.org/1999/xlink" xmlns:svgjs="http://svgjs.dev/svgjs" width="1440" height="800" preserveAspectRatio="none" viewBox="0 0 1440 800"><g mask="url(&quot;#SvgjsMask1033&quot;)" fill="none"><rect width="1440" height="800" x="0" y="0" fill="url(&quot;#SvgjsLinearGradient1034&quot;)"></rect><path d="M-55.15 858.89L-55.15 858.89" stroke="#132e65" stroke-width="1.5"></path><path d="M-55.15 858.89L-86.5 939.01" stroke="#132e65" stroke-width="1.5"></path><path d="M-55.15 858.89L73.24 836.67" stroke="#132e65" stroke-width="1.5"></path><path d="M-86.5 939.01L-86.5 939.01" stroke="#132e65" stroke-width="1.5"></path><path d="M-86.5 939.01L73.24 836.67" stroke="#132e65" stroke-width="1.5"></path><path d="M-86.5 939.01L90.85 1012.44" stroke="#132e65" stroke-width="1.5"></path><path d="M40.93 507.91L40.93 507.91" stroke="#132e65" stroke-width="1.5"></path><path d="M40.93 507.91L48.25 662.49" stroke="#132e65" stroke-width="1.5"></path><path d="M40.93 507.91L235.6 511.46" stroke="#132e65" stroke-width="1.5"></path><path d="M40.93 507.91L212.42 679.15" stroke="#132e65" stroke-width="1.5"></path><path d="M40.93 507.91L341.49 502.52" stroke="#132e65" stroke-width="1.5"></path><path d="M40.93 507.91L73.24 836.67" stroke="#132e65" stroke-width="1.5"></path><path d="M40.93 507.91L199.43 820.41" stroke="#132e65" stroke-width="1.5"></path><path d="M48.25 662.49L48.25 662.49" stroke="#132e65" stroke-width="1.5"></path><path d="M48.25 662.49L212.42 679.15" stroke="#132e65" stroke-width="1.5"></path><path d="M48.25 662.49L73.24 836.67" stroke="#132e65" stroke-width="1.5"></path><path d="M48.25 662.49L199.43 820.41" stroke="#132e65" stroke-width="1.5"></path><path d="M73.24 836.67L73.24 836.67" stroke="#132e65" stroke-width="1.5"></path><path d="M73.24 836.67L199.43 820.41" stroke="#132e65" stroke-width="1.5"></path><path d="M73.24 836.67L90.85 1012.44" stroke="#132e65" stroke-width="1.5"></path><path d="M90.85 1012.44L90.85 1012.44" stroke="#132e65" stroke-width="1.5"></path><path d="M90.85 1012.44L246.85 955.59" stroke="#132e65" stroke-width="1.5"></path><path d="M90.85 1012.44L-55.15 858.89" stroke="#132e65" stroke-width="1.5"></path><path d="M90.85 1012.44L199.43 820.41" stroke="#132e65" stroke-width="1.5"></path><path d="M235.6 511.46L235.6 511.46" stroke="#132e65" stroke-width="1.5"></path><path d="M235.6 511.46L341.49 502.52" stroke="#132e65" stroke-width="1.5"></path><path d="M235.6 511.46L212.42 679.15" stroke="#132e65" stroke-width="1.5"></path><path d="M235.6 511.46L372.49 652.01" stroke="#132e65" stroke-width="1.5"></path><path d="M235.6 511.46L48.25 662.49" stroke="#132e65" stroke-width="1.5"></path><path d="M212.42 679.15L212.42 679.15" stroke="#132e65" stroke-width="1.5"></path><path d="M212.42 679.15L199.43 820.41" stroke="#132e65" stroke-width="1.5"></path><path d="M212.42 679.15L372.49 652.01" stroke="#132e65" stroke-width="1.5"></path><path d="M199.43 820.41L199.43 820.41" stroke="#132e65" stroke-width="1.5"></path><path d="M199.43 820.41L246.85 955.59" stroke="#132e65" stroke-width="1.5"></path><path d="M199.43 820.41L382.68 793.02" stroke="#132e65" stroke-width="1.5"></path><path d="M246.85 955.59L246.85 955.59" stroke="#132e65" stroke-width="1.5"></path><path d="M246.85 955.59L348.98 996.56" stroke="#132e65" stroke-width="1.5"></path><path d="M341.49 502.52L341.49 502.52" stroke="#132e65" stroke-width="1.5"></path><path d="M341.49 502.52L372.49 652.01" stroke="#132e65" stroke-width="1.5"></path><path d="M341.49 502.52L496.4 512.63" stroke="#132e65" stroke-width="1.5"></path><path d="M372.49 652.01L372.49 652.01" stroke="#132e65" stroke-width="1.5"></path><path d="M372.49 652.01L502.74 659.76" stroke="#132e65" stroke-width="1.5"></path><path d="M372.49 652.01L382.68 793.02" stroke="#132e65" stroke-width="1.5"></path><path d="M372.49 652.01L496.4 512.63" stroke="#132e65" stroke-width="1.5"></path><path d="M382.68 793.02L382.68 793.02" stroke="#132e65" stroke-width="1.5"></path><path d="M382.68 793.02L523.07 853.64" stroke="#132e65" stroke-width="1.5"></path><path d="M382.68 793.02L502.74 659.76" stroke="#132e65" stroke-width="1.5"></path><path d="M348.98 996.56L348.98 996.56" stroke="#132e65" stroke-width="1.5"></path><path d="M348.98 996.56L501.92 989.34" stroke="#132e65" stroke-width="1.5"></path><path d="M496.4 512.63L496.4 512.63" stroke="#132e65" stroke-width="1.5"></path><path d="M496.4 512.63L502.74 659.76" stroke="#132e65" stroke-width="1.5"></path><path d="M502.74 659.76L502.74 659.76" stroke="#132e65" stroke-width="1.5"></path><path d="M502.74 659.76L681.3 648.34" stroke="#132e65" stroke-width="1.5"></path><path d="M523.07 853.64L523.07 853.64" stroke="#132e65" stroke-width="1.5"></path><path d="M523.07 853.64L501.92 989.34" stroke="#132e65" stroke-width="1.5"></path><path d="M523.07 853.64L702.76 802.24" stroke="#132e65" stroke-width="1.5"></path><path d="M501.92 989.34L501.92 989.34" stroke="#132e65" stroke-width="1.5"></path><path d="M501.92 989.34L382.68 793.02" stroke="#132e65" stroke-width="1.5"></path><path d="M501.92 989.34L246.85 955.59" stroke="#132e65" stroke-width="1.5"></path><path d="M649.04 363.05L649.04 363.05" stroke="#132e65" stroke-width="1.5"></path><path d="M649.04 363.05L692.46 540.88" stroke="#132e65" stroke-width="1.5"></path><path d="M649.04 363.05L844.68 343.68" stroke="#132e65" stroke-width="1.5"></path><path d="M649.04 363.05L800.6 503.81" stroke="#132e65" stroke-width="1.5"></path><path d="M649.04 363.05L823.9 251.82" stroke="#132e65" stroke-width="1.5"></path><path d="M692.46 540.88L692.46 540.88" stroke="#132e65" stroke-width="1.5"></path><path d="M692.46 540.88L681.3 648.34" stroke="#132e65" stroke-width="1.5"></path><path d="M692.46 540.88L800.6 503.81" stroke="#132e65" stroke-width="1.5"></path><path d="M681.3 648.34L681.3 648.34" stroke="#132e65" stroke-width="1.5"></path><path d="M702.76 802.24L702.76 802.24" stroke="#132e65" stroke-width="1.5"></path><path d="M702.76 802.24L800.88 801.99" stroke="#132e65" stroke-width="1.5"></path><path d="M702.76 802.24L681.3 648.34" stroke="#132e65" stroke-width="1.5"></path><path d="M702.76 802.24L798.92 942.14" stroke="#132e65" stroke-width="1.5"></path><path d="M702.76 802.24L841.36 651.18" stroke="#132e65" stroke-width="1.5"></path><path d="M823.9 251.82L823.9 251.82" stroke="#132e65" stroke-width="1.5"></path><path d="M823.9 251.82L844.68 343.68" stroke="#132e65" stroke-width="1.5"></path><path d="M823.9 251.82L987.01 252.5" stroke="#132e65" stroke-width="1.5"></path><path d="M844.68 343.68L844.68 343.68" stroke="#132e65" stroke-width="1.5"></path><path d="M844.68 343.68L988.75 393.1" stroke="#132e65" stroke-width="1.5"></path><path d="M844.68 343.68L800.6 503.81" stroke="#132e65" stroke-width="1.5"></path><path d="M844.68 343.68L987.01 252.5" stroke="#132e65" stroke-width="1.5"></path><path d="M800.6 503.81L800.6 503.81" stroke="#132e65" stroke-width="1.5"></path><path d="M800.6 503.81L841.36 651.18" stroke="#132e65" stroke-width="1.5"></path><path d="M800.6 503.81L970.65 501.96" stroke="#132e65" stroke-width="1.5"></path><path d="M800.6 503.81L681.3 648.34" stroke="#132e65" stroke-width="1.5"></path><path d="M841.36 651.18L841.36 651.18" stroke="#132e65" stroke-width="1.5"></path><path d="M841.36 651.18L987.84 704.7" stroke="#132e65" stroke-width="1.5"></path><path d="M800.88 801.99L800.88 801.99" stroke="#132e65" stroke-width="1.5"></path><path d="M800.88 801.99L798.92 942.14" stroke="#132e65" stroke-width="1.5"></path><path d="M800.88 801.99L841.36 651.18" stroke="#132e65" stroke-width="1.5"></path><path d="M800.88 801.99L681.3 648.34" stroke="#132e65" stroke-width="1.5"></path><path d="M798.92 942.14L798.92 942.14" stroke="#132e65" stroke-width="1.5"></path><path d="M798.92 942.14L949.28 964.04" stroke="#132e65" stroke-width="1.5"></path><path d="M986.22 -95.93L986.22 -95.93" stroke="#132e65" stroke-width="1.5"></path><path d="M986.22 -95.93L1141.65 -106.46" stroke="#132e65" stroke-width="1.5"></path><path d="M986.22 -95.93L982.73 73.07" stroke="#132e65" stroke-width="1.5"></path><path d="M986.22 -95.93L1125.21 91.49" stroke="#132e65" stroke-width="1.5"></path><path d="M986.22 -95.93L1298.61 -86.5" stroke="#132e65" stroke-width="1.5"></path><path d="M986.22 -95.93L1127.54 197.48" stroke="#132e65" stroke-width="1.5"></path><path d="M982.73 73.07L982.73 73.07" stroke="#132e65" stroke-width="1.5"></path><path d="M982.73 73.07L1125.21 91.49" stroke="#132e65" stroke-width="1.5"></path><path d="M982.73 73.07L987.01 252.5" stroke="#132e65" stroke-width="1.5"></path><path d="M987.01 252.5L987.01 252.5" stroke="#132e65" stroke-width="1.5"></path><path d="M987.01 252.5L988.75 393.1" stroke="#132e65" stroke-width="1.5"></path><path d="M987.01 252.5L1127.54 197.48" stroke="#132e65" stroke-width="1.5"></path><path d="M988.75 393.1L988.75 393.1" stroke="#132e65" stroke-width="1.5"></path><path d="M988.75 393.1L970.65 501.96" stroke="#132e65" stroke-width="1.5"></path><path d="M988.75 393.1L1109.52 505.65" stroke="#132e65" stroke-width="1.5"></path><path d="M988.75 393.1L823.9 251.82" stroke="#132e65" stroke-width="1.5"></path><path d="M988.75 393.1L800.6 503.81" stroke="#132e65" stroke-width="1.5"></path><path d="M970.65 501.96L970.65 501.96" stroke="#132e65" stroke-width="1.5"></path><path d="M970.65 501.96L1109.52 505.65" stroke="#132e65" stroke-width="1.5"></path><path d="M987.84 704.7L987.84 704.7" stroke="#132e65" stroke-width="1.5"></path><path d="M987.84 704.7L1011.31 816.8" stroke="#132e65" stroke-width="1.5"></path><path d="M987.84 704.7L1105.46 692.39" stroke="#132e65" stroke-width="1.5"></path><path d="M1011.31 816.8L1011.31 816.8" stroke="#132e65" stroke-width="1.5"></path><path d="M1011.31 816.8L1142.88 826.22" stroke="#132e65" stroke-width="1.5"></path><path d="M1011.31 816.8L1105.46 692.39" stroke="#132e65" stroke-width="1.5"></path><path d="M949.28 964.04L949.28 964.04" stroke="#132e65" stroke-width="1.5"></path><path d="M1141.65 -106.46L1141.65 -106.46" stroke="#132e65" stroke-width="1.5"></path><path d="M1141.65 -106.46L1298.61 -86.5" stroke="#132e65" stroke-width="1.5"></path><path d="M1141.65 -106.46L1125.21 91.49" stroke="#132e65" stroke-width="1.5"></path><path d="M1125.21 91.49L1125.21 91.49" stroke="#132e65" stroke-width="1.5"></path><path d="M1125.21 91.49L1127.54 197.48" stroke="#132e65" stroke-width="1.5"></path><path d="M1127.54 197.48L1127.54 197.48" stroke="#132e65" stroke-width="1.5"></path><path d="M1127.54 197.48L1253.19 258.45" stroke="#132e65" stroke-width="1.5"></path><path d="M1109.52 505.65L1109.52 505.65" stroke="#132e65" stroke-width="1.5"></path><path d="M1109.52 505.65L1243.08 532.04" stroke="#132e65" stroke-width="1.5"></path><path d="M1105.46 692.39L1105.46 692.39" stroke="#132e65" stroke-width="1.5"></path><path d="M1105.46 692.39L1142.88 826.22" stroke="#132e65" stroke-width="1.5"></path><path d="M1142.88 826.22L1142.88 826.22" stroke="#132e65" stroke-width="1.5"></path><path d="M1142.88 826.22L1310.09 849.42" stroke="#132e65" stroke-width="1.5"></path><path d="M1298.61 -86.5L1298.61 -86.5" stroke="#132e65" stroke-width="1.5"></path><path d="M1298.61 -86.5L1302.34 94.16" stroke="#132e65" stroke-width="1.5"></path><path d="M1298.61 -86.5L1411.97 109.65" stroke="#132e65" stroke-width="1.5"></path><path d="M1298.61 -86.5L1539.2 -72.2" stroke="#132e65" stroke-width="1.5"></path><path d="M1302.34 94.16L1302.34 94.16" stroke="#132e65" stroke-width="1.5"></path><path d="M1302.34 94.16L1411.97 109.65" stroke="#132e65" stroke-width="1.5"></path><path d="M1302.34 94.16L1253.19 258.45" stroke="#132e65" stroke-width="1.5"></path><path d="M1302.34 94.16L1408.46 233.08" stroke="#132e65" stroke-width="1.5"></path><path d="M1302.34 94.16L1125.21 91.49" stroke="#132e65" stroke-width="1.5"></path><path d="M1302.34 94.16L1127.54 197.48" stroke="#132e65" stroke-width="1.5"></path><path d="M1253.19 258.45L1253.19 258.45" stroke="#132e65" stroke-width="1.5"></path><path d="M1253.19 258.45L1307.29 387.45" stroke="#132e65" stroke-width="1.5"></path><path d="M1253.19 258.45L1408.46 233.08" stroke="#132e65" stroke-width="1.5"></path><path d="M1253.19 258.45L1125.21 91.49" stroke="#132e65" stroke-width="1.5"></path><path d="M1253.19 258.45L1411.97 109.65" stroke="#132e65" stroke-width="1.5"></path><path d="M1307.29 387.45L1307.29 387.45" stroke="#132e65" stroke-width="1.5"></path><path d="M1307.29 387.45L1414.64 406.07" stroke="#132e65" stroke-width="1.5"></path><path d="M1243.08 532.04L1243.08 532.04" stroke="#132e65" stroke-width="1.5"></path><path d="M1243.08 532.04L1260.09 670.62" stroke="#132e65" stroke-width="1.5"></path><path d="M1260.09 670.62L1260.09 670.62" stroke="#132e65" stroke-width="1.5"></path><path d="M1260.09 670.62L1408.17 687.86" stroke="#132e65" stroke-width="1.5"></path><path d="M1260.09 670.62L1105.46 692.39" stroke="#132e65" stroke-width="1.5"></path><path d="M1260.09 670.62L1310.09 849.42" stroke="#132e65" stroke-width="1.5"></path><path d="M1260.09 670.62L1142.88 826.22" stroke="#132e65" stroke-width="1.5"></path><path d="M1310.09 849.42L1310.09 849.42" stroke="#132e65" stroke-width="1.5"></path><path d="M1310.09 849.42L1245.91 984.8" stroke="#132e65" stroke-width="1.5"></path><path d="M1245.91 984.8L1245.91 984.8" stroke="#132e65" stroke-width="1.5"></path><path d="M1245.91 984.8L1142.88 826.22" stroke="#132e65" stroke-width="1.5"></path><path d="M1245.91 984.8L1451.57 1007.64" stroke="#132e65" stroke-width="1.5"></path><path d="M1245.91 984.8L1011.31 816.8" stroke="#132e65" stroke-width="1.5"></path><path d="M1245.91 984.8L949.28 964.04" stroke="#132e65" stroke-width="1.5"></path><path d="M1245.91 984.8L1260.09 670.62" stroke="#132e65" stroke-width="1.5"></path><path d="M1411.97 109.65L1411.97 109.65" stroke="#132e65" stroke-width="1.5"></path><path d="M1411.97 109.65L1408.46 233.08" stroke="#132e65" stroke-width="1.5"></path><path d="M1408.46 233.08L1408.46 233.08" stroke="#132e65" stroke-width="1.5"></path><path d="M1408.46 233.08L1414.64 406.07" stroke="#132e65" stroke-width="1.5"></path><path d="M1414.64 406.07L1414.64 406.07" stroke="#132e65" stroke-width="1.5"></path><path d="M1414.64 406.07L1453.56 503.05" stroke="#132e65" stroke-width="1.5"></path><path d="M1414.64 406.07L1548.31 500.15" stroke="#132e65" stroke-width="1.5"></path><path d="M1453.56 503.05L1453.56 503.05" stroke="#132e65" stroke-width="1.5"></path><path d="M1453.56 503.05L1548.31 500.15" stroke="#132e65" stroke-width="1.5"></path><path d="M1408.17 687.86L1408.17 687.86" stroke="#132e65" stroke-width="1.5"></path><path d="M1408.17 687.86L1589.7 651.34" stroke="#132e65" stroke-width="1.5"></path><path d="M1408.17 687.86L1310.09 849.42" stroke="#132e65" stroke-width="1.5"></path><path d="M1408.17 687.86L1453.56 503.05" stroke="#132e65" stroke-width="1.5"></path><path d="M1451.57 1007.64L1451.57 1007.64" stroke="#132e65" stroke-width="1.5"></path><path d="M1451.57 1007.64L1567.55 974.89" stroke="#132e65" stroke-width="1.5"></path><path d="M1451.57 1007.64L1580.63 851.13" stroke="#132e65" stroke-width="1.5"></path><path d="M1451.57 1007.64L1310.09 849.42" stroke="#132e65" stroke-width="1.5"></path><path d="M1451.57 1007.64L1408.17 687.86" stroke="#132e65" stroke-width="1.5"></path><path d="M1539.2 -72.2L1539.2 -72.2" stroke="#132e65" stroke-width="1.5"></path><path d="M1539.2 -72.2L1411.97 109.65" stroke="#132e65" stroke-width="1.5"></path><path d="M1539.2 -72.2L1603.28 194.62" stroke="#132e65" stroke-width="1.5"></path><path d="M1539.2 -72.2L1302.34 94.16" stroke="#132e65" stroke-width="1.5"></path><path d="M1603.28 194.62L1603.28 194.62" stroke="#132e65" stroke-width="1.5"></path><path d="M1603.28 194.62L1607.93 375.98" stroke="#132e65" stroke-width="1.5"></path><path d="M1603.28 194.62L1408.46 233.08" stroke="#132e65" stroke-width="1.5"></path><path d="M1603.28 194.62L1411.97 109.65" stroke="#132e65" stroke-width="1.5"></path><path d="M1607.93 375.98L1607.93 375.98" stroke="#132e65" stroke-width="1.5"></path><path d="M1607.93 375.98L1548.31 500.15" stroke="#132e65" stroke-width="1.5"></path><path d="M1607.93 375.98L1414.64 406.07" stroke="#132e65" stroke-width="1.5"></path><path d="M1607.93 375.98L1453.56 503.05" stroke="#132e65" stroke-width="1.5"></path><path d="M1548.31 500.15L1548.31 500.15" stroke="#132e65" stroke-width="1.5"></path><path d="M1548.31 500.15L1589.7 651.34" stroke="#132e65" stroke-width="1.5"></path><path d="M1548.31 500.15L1408.17 687.86" stroke="#132e65" stroke-width="1.5"></path><path d="M1548.31 500.15L1307.29 387.45" stroke="#132e65" stroke-width="1.5"></path><path d="M1589.7 651.34L1589.7 651.34" stroke="#132e65" stroke-width="1.5"></path><path d="M1580.63 851.13L1580.63 851.13" stroke="#132e65" stroke-width="1.5"></path><path d="M1580.63 851.13L1567.55 974.89" stroke="#132e65" stroke-width="1.5"></path><path d="M1580.63 851.13L1589.7 651.34" stroke="#132e65" stroke-width="1.5"></path><path d="M1580.63 851.13L1408.17 687.86" stroke="#132e65" stroke-width="1.5"></path><path d="M1580.63 851.13L1310.09 849.42" stroke="#132e65" stroke-width="1.5"></path><path d="M1580.63 851.13L1548.31 500.15" stroke="#132e65" stroke-width="1.5"></path><path d="M1567.55 974.89L1567.55 974.89" stroke="#132e65" stroke-width="1.5"></path><path d="M1567.55 974.89L1310.09 849.42" stroke="#132e65" stroke-width="1.5"></path><path d="M1567.55 974.89L1245.91 984.8" stroke="#132e65" stroke-width="1.5"></path><circle r="5" cx="-55.15" cy="858.89" fill="#132e65"></circle><circle r="5" cx="-86.5" cy="939.01" fill="#132e65"></circle><circle r="5" cx="40.93" cy="507.91" fill="#132e65"></circle><circle r="5" cx="48.25" cy="662.49" fill="#132e65"></circle><circle r="5" cx="73.24" cy="836.67" fill="#132e65"></circle><circle r="5" cx="90.85" cy="1012.44" fill="#132e65"></circle><circle r="5" cx="235.6" cy="511.46" fill="#132e65"></circle><circle r="5" cx="212.42" cy="679.15" fill="#132e65"></circle><circle r="5" cx="199.43" cy="820.41" fill="#132e65"></circle><circle r="5" cx="246.85" cy="955.59" fill="#132e65"></circle><circle r="5" cx="341.49" cy="502.52" fill="#132e65"></circle><circle r="5" cx="372.49" cy="652.01" fill="#132e65"></circle><circle r="5" cx="382.68" cy="793.02" fill="#132e65"></circle><circle r="5" cx="348.98" cy="996.56" fill="#132e65"></circle><circle r="5" cx="496.4" cy="512.63" fill="#132e65"></circle><circle r="5" cx="502.74" cy="659.76" fill="#132e65"></circle><circle r="5" cx="523.07" cy="853.64" fill="#132e65"></circle><circle r="5" cx="501.92" cy="989.34" fill="#132e65"></circle><circle r="5" cx="649.04" cy="363.05" fill="#132e65"></circle><circle r="5" cx="692.46" cy="540.88" fill="#132e65"></circle><circle r="5" cx="681.3" cy="648.34" fill="#132e65"></circle><circle r="5" cx="702.76" cy="802.24" fill="#132e65"></circle><circle r="5" cx="823.9" cy="251.82" fill="#132e65"></circle><circle r="5" cx="844.68" cy="343.68" fill="#132e65"></circle><circle r="5" cx="800.6" cy="503.81" fill="#132e65"></circle><circle r="5" cx="841.36" cy="651.18" fill="#132e65"></circle><circle r="5" cx="800.88" cy="801.99" fill="#132e65"></circle><circle r="5" cx="798.92" cy="942.14" fill="#132e65"></circle><circle r="5" cx="986.22" cy="-95.93" fill="#132e65"></circle><circle r="5" cx="982.73" cy="73.07" fill="#132e65"></circle><circle r="5" cx="987.01" cy="252.5" fill="#132e65"></circle><circle r="5" cx="988.75" cy="393.1" fill="#132e65"></circle><circle r="5" cx="970.65" cy="501.96" fill="#132e65"></circle><circle r="5" cx="987.84" cy="704.7" fill="#132e65"></circle><circle r="5" cx="1011.31" cy="816.8" fill="#132e65"></circle><circle r="5" cx="949.28" cy="964.04" fill="#132e65"></circle><circle r="5" cx="1141.65" cy="-106.46" fill="#132e65"></circle><circle r="5" cx="1125.21" cy="91.49" fill="#132e65"></circle><circle r="5" cx="1127.54" cy="197.48" fill="#132e65"></circle><circle r="5" cx="1109.52" cy="505.65" fill="#132e65"></circle><circle r="5" cx="1105.46" cy="692.39" fill="#132e65"></circle><circle r="5" cx="1142.88" cy="826.22" fill="#132e65"></circle><circle r="5" cx="1298.61" cy="-86.5" fill="#132e65"></circle><circle r="5" cx="1302.34" cy="94.16" fill="#132e65"></circle><circle r="5" cx="1253.19" cy="258.45" fill="#132e65"></circle><circle r="5" cx="1307.29" cy="387.45" fill="#132e65"></circle><circle r="5" cx="1243.08" cy="532.04" fill="#132e65"></circle><circle r="5" cx="1260.09" cy="670.62" fill="#132e65"></circle><circle r="5" cx="1310.09" cy="849.42" fill="#132e65"></circle><circle r="5" cx="1245.91" cy="984.8" fill="#132e65"></circle><circle r="5" cx="1411.97" cy="109.65" fill="#132e65"></circle><circle r="5" cx="1408.46" cy="233.08" fill="#132e65"></circle><circle r="5" cx="1414.64" cy="406.07" fill="#132e65"></circle><circle r="5" cx="1453.56" cy="503.05" fill="#132e65"></circle><circle r="5" cx="1408.17" cy="687.86" fill="#132e65"></circle><circle r="5" cx="1451.57" cy="1007.64" fill="#132e65"></circle><circle r="5" cx="1539.2" cy="-72.2" fill="#132e65"></circle><circle r="5" cx="1603.28" cy="194.62" fill="#132e65"></circle><circle r="5" cx="1607.93" cy="375.98" fill="#132e65"></circle><circle r="5" cx="1548.31" cy="500.15" fill="#132e65"></circle><circle r="5" cx="1589.7" cy="651.34" fill="#132e65"></circle><circle r="5" cx="1580.63" cy="851.13" fill="#132e65"></circle><circle r="5" cx="1567.55" cy="974.89" fill="#132e65"></circle><path d="M52.82 686.68L52.82 686.68" stroke="hsl(169.5, 57.4%, 66.5%)" stroke-width="1.5"></path><path d="M52.82 686.68L65.61 791.09" stroke="hsl(169.5, 57.4%, 66.5%)" stroke-width="1.5"></path><path d="M52.82 686.68L-94.06 708.97" stroke="hsl(169.5, 57.4%, 66.5%)" stroke-width="1.5"></path><path d="M52.82 686.68L-96.5 797.23" stroke="hsl(169.5, 57.4%, 66.5%)" stroke-width="1.5"></path><path d="M52.82 686.68L218.3 797.06" stroke="hsl(169.5, 57.4%, 66.5%)" stroke-width="1.5"></path><path d="M646.27 547.19L646.27 547.19" stroke="hsl(169.5, 57.4%, 66.5%)" stroke-width="1.5"></path><path d="M646.27 547.19L641.93 666.11" stroke="hsl(169.5, 57.4%, 66.5%)" stroke-width="1.5"></path><path d="M646.27 547.19L498.1 690.74" stroke="hsl(169.5, 57.4%, 66.5%)" stroke-width="1.5"></path><path d="M646.27 547.19L844.14 648.52" stroke="hsl(169.5, 57.4%, 66.5%)" stroke-width="1.5"></path><path d="M1129.04 403.77L1129.04 403.77" stroke="hsl(169.5, 57.4%, 66.5%)" stroke-width="1.5"></path><path d="M1129.04 403.77L1119.97 504.81" stroke="hsl(169.5, 57.4%, 66.5%)" stroke-width="1.5"></path><path d="M1129.04 403.77L958.24 382.5" stroke="hsl(169.5, 57.4%, 66.5%)" stroke-width="1.5"></path><path d="M1125.26 700.62L1125.26 700.62" stroke="hsl(169.5, 57.4%, 66.5%)" stroke-width="1.5"></path><path d="M1125.26 700.62L1137.62 854.85" stroke="hsl(169.5, 57.4%, 66.5%)" stroke-width="1.5"></path><path d="M1125.26 700.62L949.48 681.57" stroke="hsl(169.5, 57.4%, 66.5%)" stroke-width="1.5"></path><path d="M1125.26 700.62L1309.81 659.16" stroke="hsl(169.5, 57.4%, 66.5%)" stroke-width="1.5"></path><path d="M1125.26 700.62L1119.97 504.81" stroke="hsl(169.5, 57.4%, 66.5%)" stroke-width="1.5"></path><path d="M1125.26 700.62L962.41 813.43" stroke="hsl(169.5, 57.4%, 66.5%)" stroke-width="1.5"></path><path d="M1140.69 943.79L1140.69 943.79" stroke="hsl(169.5, 57.4%, 66.5%)" stroke-width="1.5"></path><path d="M1140.69 943.79L1137.62 854.85" stroke="hsl(169.5, 57.4%, 66.5%)" stroke-width="1.5"></path><path d="M1140.69 943.79L1279.84 995.08" stroke="hsl(169.5, 57.4%, 66.5%)" stroke-width="1.5"></path><path d="M1140.69 943.79L1265.19 860.21" stroke="hsl(169.5, 57.4%, 66.5%)" stroke-width="1.5"></path><path d="M1140.69 943.79L986.13 961.91" stroke="hsl(169.5, 57.4%, 66.5%)" stroke-width="1.5"></path><path d="M1140.69 943.79L962.41 813.43" stroke="hsl(169.5, 57.4%, 66.5%)" stroke-width="1.5"></path><path d="M1140.69 943.79L1125.26 700.62" stroke="hsl(169.5, 57.4%, 66.5%)" stroke-width="1.5"></path><path d="M1303.33 -103.4L1303.33 -103.4" stroke="hsl(169.5, 57.4%, 66.5%)" stroke-width="1.5"></path><path d="M1303.33 -103.4L1424.74 -65.33" stroke="hsl(169.5, 57.4%, 66.5%)" stroke-width="1.5"></path><path d="M1303.33 -103.4L1299.79 83.42" stroke="hsl(169.5, 57.4%, 66.5%)" stroke-width="1.5"></path><path d="M1303.33 -103.4L1426.17 92.4" stroke="hsl(169.5, 57.4%, 66.5%)" stroke-width="1.5"></path><path d="M1303.33 -103.4L1570.24 -56.35" stroke="hsl(169.5, 57.4%, 66.5%)" stroke-width="1.5"></path><path d="M1303.33 -103.4L1412.58 191.02" stroke="hsl(169.5, 57.4%, 66.5%)" stroke-width="1.5"></path><path d="M1303.33 -103.4L1281.71 212.98" stroke="hsl(169.5, 57.4%, 66.5%)" stroke-width="1.5"></path><path d="M1306.59 361.46L1306.59 361.46" stroke="hsl(169.5, 57.4%, 66.5%)" stroke-width="1.5"></path><path d="M1306.59 361.46L1414.74 346.28" stroke="hsl(169.5, 57.4%, 66.5%)" stroke-width="1.5"></path><path d="M1306.59 361.46L1281.71 212.98" stroke="hsl(169.5, 57.4%, 66.5%)" stroke-width="1.5"></path><path d="M1306.59 361.46L1274.04 528.75" stroke="hsl(169.5, 57.4%, 66.5%)" stroke-width="1.5"></path><path d="M1274.04 528.75L1274.04 528.75" stroke="hsl(169.5, 57.4%, 66.5%)" stroke-width="1.5"></path><path d="M1274.04 528.75L1309.81 659.16" stroke="hsl(169.5, 57.4%, 66.5%)" stroke-width="1.5"></path><path d="M1274.04 528.75L1119.97 504.81" stroke="hsl(169.5, 57.4%, 66.5%)" stroke-width="1.5"></path><path d="M1426.17 92.4L1426.17 92.4" stroke="hsl(169.5, 57.4%, 66.5%)" stroke-width="1.5"></path><path d="M1426.17 92.4L1412.58 191.02" stroke="hsl(169.5, 57.4%, 66.5%)" stroke-width="1.5"></path><path d="M1414.74 346.28L1414.74 346.28" stroke="hsl(169.5, 57.4%, 66.5%)" stroke-width="1.5"></path><path d="M1414.74 346.28L1546.25 380.97" stroke="hsl(169.5, 57.4%, 66.5%)" stroke-width="1.5"></path><path d="M1456.31 689.59L1456.31 689.59" stroke="hsl(169.5, 57.4%, 66.5%)" stroke-width="1.5"></path><path d="M1456.31 689.59L1543.33 708.3" stroke="hsl(169.5, 57.4%, 66.5%)" stroke-width="1.5"></path><path d="M1456.31 689.59L1437.46 789.71" stroke="hsl(169.5, 57.4%, 66.5%)" stroke-width="1.5"></path><path d="M1456.31 689.59L1309.81 659.16" stroke="hsl(169.5, 57.4%, 66.5%)" stroke-width="1.5"></path><path d="M1437.46 789.71L1437.46 789.71" stroke="hsl(169.5, 57.4%, 66.5%)" stroke-width="1.5"></path><path d="M1437.46 789.71L1543.33 708.3" stroke="hsl(169.5, 57.4%, 66.5%)" stroke-width="1.5"></path><path d="M1437.46 789.71L1594.98 792.38" stroke="hsl(169.5, 57.4%, 66.5%)" stroke-width="1.5"></path><path d="M1437.46 789.71L1309.81 659.16" stroke="hsl(169.5, 57.4%, 66.5%)" stroke-width="1.5"></path><path d="M1546.25 380.97L1546.25 380.97" stroke="hsl(169.5, 57.4%, 66.5%)" stroke-width="1.5"></path><path d="M1546.25 380.97L1560.51 497.24" stroke="hsl(169.5, 57.4%, 66.5%)" stroke-width="1.5"></path><path d="M1560.51 497.24L1560.51 497.24" stroke="hsl(169.5, 57.4%, 66.5%)" stroke-width="1.5"></path><path d="M1560.51 497.24L1457.88 511.31" stroke="hsl(169.5, 57.4%, 66.5%)" stroke-width="1.5"></path><path d="M1560.51 497.24L1414.74 346.28" stroke="hsl(169.5, 57.4%, 66.5%)" stroke-width="1.5"></path><path d="M1560.51 497.24L1543.33 708.3" stroke="hsl(169.5, 57.4%, 66.5%)" stroke-width="1.5"></path><path d="M1560.51 497.24L1456.31 689.59" stroke="hsl(169.5, 57.4%, 66.5%)" stroke-width="1.5"></path><path d="M1543.33 708.3L1543.33 708.3" stroke="hsl(169.5, 57.4%, 66.5%)" stroke-width="1.5"></path><path d="M1543.33 708.3L1594.98 792.38" stroke="hsl(169.5, 57.4%, 66.5%)" stroke-width="1.5"></path><path d="M1543.33 708.3L1457.88 511.31" stroke="hsl(169.5, 57.4%, 66.5%)" stroke-width="1.5"></path><path d="M1543.33 708.3L1309.81 659.16" stroke="hsl(169.5, 57.4%, 66.5%)" stroke-width="1.5"></path><path d="M-94.06 708.97L-94.06 708.97" stroke="hsl(169.5, 57.4%, 66.5%)" stroke-width="1.5"></path><path d="M-94.06 708.97L-96.5 797.23" stroke="hsl(169.5, 57.4%, 66.5%)" stroke-width="1.5"></path><path d="M-94.06 708.97L65.61 791.09" stroke="hsl(169.5, 57.4%, 66.5%)" stroke-width="1.5"></path><path d="M-94.06 708.97L-60.34 959.81" stroke="hsl(169.5, 57.4%, 66.5%)" stroke-width="1.5"></path><path d="M-94.06 708.97L218.3 797.06" stroke="hsl(169.5, 57.4%, 66.5%)" stroke-width="1.5"></path><path d="M-96.5 797.23L-96.5 797.23" stroke="hsl(169.5, 57.4%, 66.5%)" stroke-width="1.5"></path><path d="M-96.5 797.23L65.61 791.09" stroke="hsl(169.5, 57.4%, 66.5%)" stroke-width="1.5"></path><path d="M-96.5 797.23L-60.34 959.81" stroke="hsl(169.5, 57.4%, 66.5%)" stroke-width="1.5"></path><path d="M-96.5 797.23L82.6 995.37" stroke="hsl(169.5, 57.4%, 66.5%)" stroke-width="1.5"></path><path d="M-60.34 959.81L-60.34 959.81" stroke="hsl(169.5, 57.4%, 66.5%)" stroke-width="1.5"></path><path d="M-60.34 959.81L82.6 995.37" stroke="hsl(169.5, 57.4%, 66.5%)" stroke-width="1.5"></path><path d="M-60.34 959.81L65.61 791.09" stroke="hsl(169.5, 57.4%, 66.5%)" stroke-width="1.5"></path><path d="M65.61 791.09L65.61 791.09" stroke="hsl(169.5, 57.4%, 66.5%)" stroke-width="1.5"></path><path d="M65.61 791.09L218.3 797.06" stroke="hsl(169.5, 57.4%, 66.5%)" stroke-width="1.5"></path><path d="M65.61 791.09L82.6 995.37" stroke="hsl(169.5, 57.4%, 66.5%)" stroke-width="1.5"></path><path d="M82.6 995.37L82.6 995.37" stroke="hsl(169.5, 57.4%, 66.5%)" stroke-width="1.5"></path><path d="M82.6 995.37L202.64 975.88" stroke="hsl(169.5, 57.4%, 66.5%)" stroke-width="1.5"></path><path d="M82.6 995.37L218.3 797.06" stroke="hsl(169.5, 57.4%, 66.5%)" stroke-width="1.5"></path><path d="M218.3 797.06L218.3 797.06" stroke="hsl(169.5, 57.4%, 66.5%)" stroke-width="1.5"></path><path d="M218.3 797.06L376.21 821.9" stroke="hsl(169.5, 57.4%, 66.5%)" stroke-width="1.5"></path><path d="M218.3 797.06L202.64 975.88" stroke="hsl(169.5, 57.4%, 66.5%)" stroke-width="1.5"></path><path d="M202.64 975.88L202.64 975.88" stroke="hsl(169.5, 57.4%, 66.5%)" stroke-width="1.5"></path><path d="M202.64 975.88L381.85 1003.51" stroke="hsl(169.5, 57.4%, 66.5%)" stroke-width="1.5"></path><path d="M202.64 975.88L65.61 791.09" stroke="hsl(169.5, 57.4%, 66.5%)" stroke-width="1.5"></path><path d="M202.64 975.88L376.21 821.9" stroke="hsl(169.5, 57.4%, 66.5%)" stroke-width="1.5"></path><path d="M383.6 647.45L383.6 647.45" stroke="hsl(169.5, 57.4%, 66.5%)" stroke-width="1.5"></path><path d="M383.6 647.45L498.1 690.74" stroke="hsl(169.5, 57.4%, 66.5%)" stroke-width="1.5"></path><path d="M383.6 647.45L376.21 821.9" stroke="hsl(169.5, 57.4%, 66.5%)" stroke-width="1.5"></path><path d="M383.6 647.45L218.3 797.06" stroke="hsl(169.5, 57.4%, 66.5%)" stroke-width="1.5"></path><path d="M383.6 647.45L555.15 836.39" stroke="hsl(169.5, 57.4%, 66.5%)" stroke-width="1.5"></path><path d="M383.6 647.45L641.93 666.11" stroke="hsl(169.5, 57.4%, 66.5%)" stroke-width="1.5"></path><path d="M376.21 821.9L376.21 821.9" stroke="hsl(169.5, 57.4%, 66.5%)" stroke-width="1.5"></path><path d="M381.85 1003.51L381.85 1003.51" stroke="hsl(169.5, 57.4%, 66.5%)" stroke-width="1.5"></path><path d="M381.85 1003.51L523.66 955.36" stroke="hsl(169.5, 57.4%, 66.5%)" stroke-width="1.5"></path><path d="M498.1 690.74L498.1 690.74" stroke="hsl(169.5, 57.4%, 66.5%)" stroke-width="1.5"></path><path d="M498.1 690.74L641.93 666.11" stroke="hsl(169.5, 57.4%, 66.5%)" stroke-width="1.5"></path><path d="M498.1 690.74L555.15 836.39" stroke="hsl(169.5, 57.4%, 66.5%)" stroke-width="1.5"></path><path d="M555.15 836.39L555.15 836.39" stroke="hsl(169.5, 57.4%, 66.5%)" stroke-width="1.5"></path><path d="M555.15 836.39L670.16 812.94" stroke="hsl(169.5, 57.4%, 66.5%)" stroke-width="1.5"></path><path d="M555.15 836.39L523.66 955.36" stroke="hsl(169.5, 57.4%, 66.5%)" stroke-width="1.5"></path><path d="M555.15 836.39L376.21 821.9" stroke="hsl(169.5, 57.4%, 66.5%)" stroke-width="1.5"></path><path d="M555.15 836.39L641.93 666.11" stroke="hsl(169.5, 57.4%, 66.5%)" stroke-width="1.5"></path><path d="M523.66 955.36L523.66 955.36" stroke="hsl(169.5, 57.4%, 66.5%)" stroke-width="1.5"></path><path d="M523.66 955.36L668.08 1010.17" stroke="hsl(169.5, 57.4%, 66.5%)" stroke-width="1.5"></path><path d="M641.93 666.11L641.93 666.11" stroke="hsl(169.5, 57.4%, 66.5%)" stroke-width="1.5"></path><path d="M670.16 812.94L670.16 812.94" stroke="hsl(169.5, 57.4%, 66.5%)" stroke-width="1.5"></path><path d="M670.16 812.94L641.93 666.11" stroke="hsl(169.5, 57.4%, 66.5%)" stroke-width="1.5"></path><path d="M668.08 1010.17L668.08 1010.17" stroke="hsl(169.5, 57.4%, 66.5%)" stroke-width="1.5"></path><path d="M668.08 1010.17L833.99 970.87" stroke="hsl(169.5, 57.4%, 66.5%)" stroke-width="1.5"></path><path d="M668.08 1010.17L670.16 812.94" stroke="hsl(169.5, 57.4%, 66.5%)" stroke-width="1.5"></path><path d="M668.08 1010.17L555.15 836.39" stroke="hsl(169.5, 57.4%, 66.5%)" stroke-width="1.5"></path><path d="M668.08 1010.17L832.28 861.43" stroke="hsl(169.5, 57.4%, 66.5%)" stroke-width="1.5"></path><path d="M668.08 1010.17L381.85 1003.51" stroke="hsl(169.5, 57.4%, 66.5%)" stroke-width="1.5"></path><path d="M844.14 648.52L844.14 648.52" stroke="hsl(169.5, 57.4%, 66.5%)" stroke-width="1.5"></path><path d="M844.14 648.52L949.48 681.57" stroke="hsl(169.5, 57.4%, 66.5%)" stroke-width="1.5"></path><path d="M844.14 648.52L975.99 556.16" stroke="hsl(169.5, 57.4%, 66.5%)" stroke-width="1.5"></path><path d="M844.14 648.52L962.41 813.43" stroke="hsl(169.5, 57.4%, 66.5%)" stroke-width="1.5"></path><path d="M844.14 648.52L641.93 666.11" stroke="hsl(169.5, 57.4%, 66.5%)" stroke-width="1.5"></path><path d="M832.28 861.43L832.28 861.43" stroke="hsl(169.5, 57.4%, 66.5%)" stroke-width="1.5"></path><path d="M832.28 861.43L833.99 970.87" stroke="hsl(169.5, 57.4%, 66.5%)" stroke-width="1.5"></path><path d="M832.28 861.43L962.41 813.43" stroke="hsl(169.5, 57.4%, 66.5%)" stroke-width="1.5"></path><path d="M832.28 861.43L670.16 812.94" stroke="hsl(169.5, 57.4%, 66.5%)" stroke-width="1.5"></path><path d="M832.28 861.43L986.13 961.91" stroke="hsl(169.5, 57.4%, 66.5%)" stroke-width="1.5"></path><path d="M832.28 861.43L844.14 648.52" stroke="hsl(169.5, 57.4%, 66.5%)" stroke-width="1.5"></path><path d="M832.28 861.43L949.48 681.57" stroke="hsl(169.5, 57.4%, 66.5%)" stroke-width="1.5"></path><path d="M833.99 970.87L833.99 970.87" stroke="hsl(169.5, 57.4%, 66.5%)" stroke-width="1.5"></path><path d="M833.99 970.87L986.13 961.91" stroke="hsl(169.5, 57.4%, 66.5%)" stroke-width="1.5"></path><path d="M833.99 970.87L962.41 813.43" stroke="hsl(169.5, 57.4%, 66.5%)" stroke-width="1.5"></path><path d="M833.99 970.87L670.16 812.94" stroke="hsl(169.5, 57.4%, 66.5%)" stroke-width="1.5"></path><path d="M833.99 970.87L1140.69 943.79" stroke="hsl(169.5, 57.4%, 66.5%)" stroke-width="1.5"></path><path d="M958.24 382.5L958.24 382.5" stroke="hsl(169.5, 57.4%, 66.5%)" stroke-width="1.5"></path><path d="M958.24 382.5L975.99 556.16" stroke="hsl(169.5, 57.4%, 66.5%)" stroke-width="1.5"></path><path d="M958.24 382.5L1119.97 504.81" stroke="hsl(169.5, 57.4%, 66.5%)" stroke-width="1.5"></path><path d="M958.24 382.5L1154.35 188.5" stroke="hsl(169.5, 57.4%, 66.5%)" stroke-width="1.5"></path><path d="M958.24 382.5L844.14 648.52" stroke="hsl(169.5, 57.4%, 66.5%)" stroke-width="1.5"></path><path d="M958.24 382.5L949.48 681.57" stroke="hsl(169.5, 57.4%, 66.5%)" stroke-width="1.5"></path><path d="M975.99 556.16L975.99 556.16" stroke="hsl(169.5, 57.4%, 66.5%)" stroke-width="1.5"></path><path d="M975.99 556.16L949.48 681.57" stroke="hsl(169.5, 57.4%, 66.5%)" stroke-width="1.5"></path><path d="M949.48 681.57L949.48 681.57" stroke="hsl(169.5, 57.4%, 66.5%)" stroke-width="1.5"></path><path d="M949.48 681.57L962.41 813.43" stroke="hsl(169.5, 57.4%, 66.5%)" stroke-width="1.5"></path><path d="M949.48 681.57L1119.97 504.81" stroke="hsl(169.5, 57.4%, 66.5%)" stroke-width="1.5"></path><path d="M962.41 813.43L962.41 813.43" stroke="hsl(169.5, 57.4%, 66.5%)" stroke-width="1.5"></path><path d="M962.41 813.43L986.13 961.91" stroke="hsl(169.5, 57.4%, 66.5%)" stroke-width="1.5"></path><path d="M986.13 961.91L986.13 961.91" stroke="hsl(169.5, 57.4%, 66.5%)" stroke-width="1.5"></path><path d="M1154.35 188.5L1154.35 188.5" stroke="hsl(169.5, 57.4%, 66.5%)" stroke-width="1.5"></path><path d="M1154.35 188.5L1281.71 212.98" stroke="hsl(169.5, 57.4%, 66.5%)" stroke-width="1.5"></path><path d="M1154.35 188.5L1299.79 83.42" stroke="hsl(169.5, 57.4%, 66.5%)" stroke-width="1.5"></path><path d="M1154.35 188.5L1129.04 403.77" stroke="hsl(169.5, 57.4%, 66.5%)" stroke-width="1.5"></path><path d="M1154.35 188.5L1306.59 361.46" stroke="hsl(169.5, 57.4%, 66.5%)" stroke-width="1.5"></path><path d="M1119.97 504.81L1119.97 504.81" stroke="hsl(169.5, 57.4%, 66.5%)" stroke-width="1.5"></path><path d="M1119.97 504.81L975.99 556.16" stroke="hsl(169.5, 57.4%, 66.5%)" stroke-width="1.5"></path><path d="M1137.62 854.85L1137.62 854.85" stroke="hsl(169.5, 57.4%, 66.5%)" stroke-width="1.5"></path><path d="M1137.62 854.85L1265.19 860.21" stroke="hsl(169.5, 57.4%, 66.5%)" stroke-width="1.5"></path><path d="M1299.79 83.42L1299.79 83.42" stroke="hsl(169.5, 57.4%, 66.5%)" stroke-width="1.5"></path><path d="M1299.79 83.42L1426.17 92.4" stroke="hsl(169.5, 57.4%, 66.5%)" stroke-width="1.5"></path><path d="M1299.79 83.42L1281.71 212.98" stroke="hsl(169.5, 57.4%, 66.5%)" stroke-width="1.5"></path><path d="M1299.79 83.42L1412.58 191.02" stroke="hsl(169.5, 57.4%, 66.5%)" stroke-width="1.5"></path><path d="M1299.79 83.42L1424.74 -65.33" stroke="hsl(169.5, 57.4%, 66.5%)" stroke-width="1.5"></path><path d="M1281.71 212.98L1281.71 212.98" stroke="hsl(169.5, 57.4%, 66.5%)" stroke-width="1.5"></path><path d="M1281.71 212.98L1412.58 191.02" stroke="hsl(169.5, 57.4%, 66.5%)" stroke-width="1.5"></path><path d="M1281.71 212.98L1426.17 92.4" stroke="hsl(169.5, 57.4%, 66.5%)" stroke-width="1.5"></path><path d="M1281.71 212.98L1414.74 346.28" stroke="hsl(169.5, 57.4%, 66.5%)" stroke-width="1.5"></path><path d="M1309.81 659.16L1309.81 659.16" stroke="hsl(169.5, 57.4%, 66.5%)" stroke-width="1.5"></path><path d="M1309.81 659.16L1265.19 860.21" stroke="hsl(169.5, 57.4%, 66.5%)" stroke-width="1.5"></path><path d="M1309.81 659.16L1457.88 511.31" stroke="hsl(169.5, 57.4%, 66.5%)" stroke-width="1.5"></path><path d="M1265.19 860.21L1265.19 860.21" stroke="hsl(169.5, 57.4%, 66.5%)" stroke-width="1.5"></path><path d="M1265.19 860.21L1279.84 995.08" stroke="hsl(169.5, 57.4%, 66.5%)" stroke-width="1.5"></path><path d="M1265.19 860.21L1437.46 789.71" stroke="hsl(169.5, 57.4%, 66.5%)" stroke-width="1.5"></path><path d="M1279.84 995.08L1279.84 995.08" stroke="hsl(169.5, 57.4%, 66.5%)" stroke-width="1.5"></path><path d="M1279.84 995.08L1435.09 979.18" stroke="hsl(169.5, 57.4%, 66.5%)" stroke-width="1.5"></path><path d="M1424.74 -65.33L1424.74 -65.33" stroke="hsl(169.5, 57.4%, 66.5%)" stroke-width="1.5"></path><path d="M1424.74 -65.33L1570.24 -56.35" stroke="hsl(169.5, 57.4%, 66.5%)" stroke-width="1.5"></path><path d="M1412.58 191.02L1412.58 191.02" stroke="hsl(169.5, 57.4%, 66.5%)" stroke-width="1.5"></path><path d="M1412.58 191.02L1414.74 346.28" stroke="hsl(169.5, 57.4%, 66.5%)" stroke-width="1.5"></path><path d="M1457.88 511.31L1457.88 511.31" stroke="hsl(169.5, 57.4%, 66.5%)" stroke-width="1.5"></path><path d="M1457.88 511.31L1546.25 380.97" stroke="hsl(169.5, 57.4%, 66.5%)" stroke-width="1.5"></path><path d="M1457.88 511.31L1414.74 346.28" stroke="hsl(169.5, 57.4%, 66.5%)" stroke-width="1.5"></path><path d="M1435.09 979.18L1435.09 979.18" stroke="hsl(169.5, 57.4%, 66.5%)" stroke-width="1.5"></path><path d="M1435.09 979.18L1585.05 951.81" stroke="hsl(169.5, 57.4%, 66.5%)" stroke-width="1.5"></path><path d="M1435.09 979.18L1437.46 789.71" stroke="hsl(169.5, 57.4%, 66.5%)" stroke-width="1.5"></path><path d="M1570.24 -56.35L1570.24 -56.35" stroke="hsl(169.5, 57.4%, 66.5%)" stroke-width="1.5"></path><path d="M1570.24 -56.35L1549.4 104.39" stroke="hsl(169.5, 57.4%, 66.5%)" stroke-width="1.5"></path><path d="M1549.4 104.39L1549.4 104.39" stroke="hsl(169.5, 57.4%, 66.5%)" stroke-width="1.5"></path><path d="M1549.4 104.39L1426.17 92.4" stroke="hsl(169.5, 57.4%, 66.5%)" stroke-width="1.5"></path><path d="M1549.4 104.39L1567.85 227.73" stroke="hsl(169.5, 57.4%, 66.5%)" stroke-width="1.5"></path><path d="M1567.85 227.73L1567.85 227.73" stroke="hsl(169.5, 57.4%, 66.5%)" stroke-width="1.5"></path><path d="M1567.85 227.73L1546.25 380.97" stroke="hsl(169.5, 57.4%, 66.5%)" stroke-width="1.5"></path><path d="M1594.98 792.38L1594.98 792.38" stroke="hsl(169.5, 57.4%, 66.5%)" stroke-width="1.5"></path><path d="M1585.05 951.81L1585.05 951.81" stroke="hsl(169.5, 57.4%, 66.5%)" stroke-width="1.5"></path><path d="M1585.05 951.81L1594.98 792.38" stroke="hsl(169.5, 57.4%, 66.5%)" stroke-width="1.5"></path><circle r="25" cx="52.82" cy="686.68" fill="url(&quot;#SvgjsRadialGradient1035&quot;)"></circle><circle r="25" cx="646.27" cy="547.19" fill="url(&quot;#SvgjsRadialGradient1035&quot;)"></circle><circle r="25" cx="1129.04" cy="403.77" fill="url(&quot;#SvgjsRadialGradient1035&quot;)"></circle><circle r="25" cx="1125.26" cy="700.62" fill="url(&quot;#SvgjsRadialGradient1035&quot;)"></circle><circle r="25" cx="1140.69" cy="943.79" fill="url(&quot;#SvgjsRadialGradient1035&quot;)"></circle><circle r="25" cx="1303.33" cy="-103.4" fill="url(&quot;#SvgjsRadialGradient1035&quot;)"></circle><circle r="25" cx="1306.59" cy="361.46" fill="url(&quot;#SvgjsRadialGradient1035&quot;)"></circle><circle r="25" cx="1274.04" cy="528.75" fill="url(&quot;#SvgjsRadialGradient1035&quot;)"></circle><circle r="25" cx="1426.17" cy="92.4" fill="url(&quot;#SvgjsRadialGradient1035&quot;)"></circle><circle r="25" cx="1414.74" cy="346.28" fill="url(&quot;#SvgjsRadialGradient1035&quot;)"></circle><circle r="25" cx="1456.31" cy="689.59" fill="url(&quot;#SvgjsRadialGradient1035&quot;)"></circle><circle r="25" cx="1437.46" cy="789.71" fill="url(&quot;#SvgjsRadialGradient1035&quot;)"></circle><circle r="25" cx="1546.25" cy="380.97" fill="url(&quot;#SvgjsRadialGradient1035&quot;)"></circle><circle r="25" cx="1560.51" cy="497.24" fill="url(&quot;#SvgjsRadialGradient1035&quot;)"></circle><circle r="25" cx="1543.33" cy="708.3" fill="url(&quot;#SvgjsRadialGradient1035&quot;)"></circle><circle r="5" cx="-94.06" cy="708.97" fill="#9de5d8"></circle><circle r="5" cx="-96.5" cy="797.23" fill="#9de5d8"></circle><circle r="5" cx="-60.34" cy="959.81" fill="#9de5d8"></circle><circle r="5" cx="65.61" cy="791.09" fill="#9de5d8"></circle><circle r="5" cx="82.6" cy="995.37" fill="#9de5d8"></circle><circle r="5" cx="218.3" cy="797.06" fill="#9de5d8"></circle><circle r="5" cx="202.64" cy="975.88" fill="#9de5d8"></circle><circle r="5" cx="383.6" cy="647.45" fill="#9de5d8"></circle><circle r="5" cx="376.21" cy="821.9" fill="#9de5d8"></circle><circle r="5" cx="381.85" cy="1003.51" fill="#9de5d8"></circle><circle r="5" cx="498.1" cy="690.74" fill="#9de5d8"></circle><circle r="5" cx="555.15" cy="836.39" fill="#9de5d8"></circle><circle r="5" cx="523.66" cy="955.36" fill="#9de5d8"></circle><circle r="5" cx="641.93" cy="666.11" fill="#9de5d8"></circle><circle r="5" cx="670.16" cy="812.94" fill="#9de5d8"></circle><circle r="5" cx="668.08" cy="1010.17" fill="#9de5d8"></circle><circle r="5" cx="844.14" cy="648.52" fill="#9de5d8"></circle><circle r="5" cx="832.28" cy="861.43" fill="#9de5d8"></circle><circle r="5" cx="833.99" cy="970.87" fill="#9de5d8"></circle><circle r="5" cx="958.24" cy="382.5" fill="#9de5d8"></circle><circle r="5" cx="975.99" cy="556.16" fill="#9de5d8"></circle><circle r="5" cx="949.48" cy="681.57" fill="#9de5d8"></circle><circle r="5" cx="962.41" cy="813.43" fill="#9de5d8"></circle><circle r="5" cx="986.13" cy="961.91" fill="#9de5d8"></circle><circle r="5" cx="1154.35" cy="188.5" fill="#9de5d8"></circle><circle r="5" cx="1119.97" cy="504.81" fill="#9de5d8"></circle><circle r="5" cx="1137.62" cy="854.85" fill="#9de5d8"></circle><circle r="5" cx="1299.79" cy="83.42" fill="#9de5d8"></circle><circle r="5" cx="1281.71" cy="212.98" fill="#9de5d8"></circle><circle r="5" cx="1309.81" cy="659.16" fill="#9de5d8"></circle><circle r="5" cx="1265.19" cy="860.21" fill="#9de5d8"></circle><circle r="5" cx="1279.84" cy="995.08" fill="#9de5d8"></circle><circle r="5" cx="1424.74" cy="-65.33" fill="#9de5d8"></circle><circle r="5" cx="1412.58" cy="191.02" fill="#9de5d8"></circle><circle r="5" cx="1457.88" cy="511.31" fill="#9de5d8"></circle><circle r="5" cx="1435.09" cy="979.18" fill="#9de5d8"></circle><circle r="5" cx="1570.24" cy="-56.35" fill="#9de5d8"></circle><circle r="5" cx="1549.4" cy="104.39" fill="#9de5d8"></circle><circle r="5" cx="1567.85" cy="227.73" fill="#9de5d8"></circle><circle r="5" cx="1594.98" cy="792.38" fill="#9de5d8"></circle><circle r="5" cx="1585.05" cy="951.81" fill="#9de5d8"></circle></g><defs><mask id="SvgjsMask1033"><rect width="1440" height="800" fill="#ffffff"></rect></mask><linearGradient x1="50%" y1="100%" x2="50%" y2="0%" gradientUnits="userSpaceOnUse" id="SvgjsLinearGradient1034"><stop stop-color="#0e2a47" offset="0"></stop><stop stop-color="rgba(36, 169, 193, 1)" offset="0.62"></stop><stop stop-color="rgba(36, 169, 193, 1)" offset="1"></stop></linearGradient><radialGradient id="SvgjsRadialGradient1035"><stop stop-color="#ffffff" offset="0.1"></stop><stop stop-color="rgba(59, 202, 177, 1)" offset="0.2"></stop><stop stop-color="rgba(59, 202, 177, 0)" offset="1"></stop></radialGradient></defs></svg>