<svg xmlns="http://www.w3.org/2000/svg" version="1.1" xmlns:xlink="http://www.w3.org/1999/xlink" xmlns:svgjs="http://svgjs.dev/svgjs" width="1440" height="800" preserveAspectRatio="none" viewBox="0 0 1440 800"><g mask="url(&quot;#SvgjsMask1006&quot;)" fill="none"><rect width="1440" height="800" x="0" y="0" fill="#0e2a47"></rect><path d="M -574.8767753566751,457 C -478.88,436.4 -286.88,318.6 -94.87677535667515,354 C 97.12,389.4 193.12,667.6 385.1232246433249,634 C 577.12,600.4 673.12,196.6 865.1232246433249,186 C 1057.12,175.4 1230.15,579.8 1345.1232246433249,581 C 1460.1,582.2 1421.02,269.8 1440,192" stroke="rgba(66, 68, 90, 1)" stroke-width="2"></path><path d="M -515.2721116002112,156 C -419.27,267.4 -227.27,694 -35.27211160021121,713 C 156.73,732 252.73,269.8 444.7278883997888,251 C 636.73,232.2 732.73,638 924.7278883997888,619 C 1116.73,600 1301.67,150.6 1404.7278883997888,156 C 1507.78,161.4 1432.95,548 1440,646" stroke="rgba(51, 121, 194, 0.58)" stroke-width="2"></path><path d="M -439.0443156020506,256 C -343.04,343.4 -151.04,667.8 40.95568439794942,693 C 232.96,718.2 328.96,423.4 520.9556843979494,382 C 712.96,340.6 808.96,512.4 1000.9556843979494,486 C 1192.96,459.6 1393.15,246.6 1480.9556843979494,250 C 1568.76,253.4 1448.19,452.4 1440,503" stroke="rgba(51, 121, 194, 0.58)" stroke-width="2"></path><path d="M -223.16909858449276,628 C -127.17,521.4 64.83,95.8 256.83090141550724,95 C 448.83,94.2 544.83,579.8 736.8309014155072,624 C 928.83,668.2 1024.83,318.6 1216.8309014155072,316 C 1408.83,313.4 1652.2,597.4 1696.8309014155072,611 C 1741.46,624.6 1491.37,429.4 1440,384" stroke="rgba(66, 68, 90, 1)" stroke-width="2"></path></g><defs><mask id="SvgjsMask1006"><rect width="1440" height="800" fill="#ffffff"></rect></mask></defs></svg>